{"title":"Boston - More Than a Feeling 576p x264 DTS (promo)","uid":8826308,"size":114806841,"categoryP":"video","categoryS":"music_videos","magnet":"?xt=urn:btih:9aacbedd8f2a0c1362ed3cae40a8f8cff1d7cc5b&amp;dn=Boston+-+More+Than+a+Feeling+576p+x264+DTS+%28promo%29&amp;tr=udp%3A%2F%2Ftracker.openbittorrent.com%3A80&amp;tr=udp%3A%2F%2Fopen.demonii.com%3A1337&amp;tr=udp%3A%2F%2Ftracker.coppersurfer.tk%3A6969&amp;tr=udp%3A%2F%2Fexodus.desync.com%3A6969","seeders":0,"leechers":1,"uploader":"Jell181155","files":1,"time":1376856070,"description":"General\n\nComplete name                            : Boston - More Than a Feeling\nFormat                                   : Matroska\nFormat version                           : Version 2\nFile size                                : 109 MiB\nDuration                                 : 3mn 21s\nOverall bit rate                         : 4 550 Kbps\nWriting application                      : mkvmerge v3.4.0\nWriting library                          : libebml v0.8.0 + libmatroska v0.9.0\n\nVideo\nID                                       : 1\nFormat                                   : AVC\nFormat/Info                              : Advanced Video Codec\nFormat profile                           : &lt;a class=&quot;__cf_email__&quot; href=&quot;/cdn-cgi/l/email-protection&quot; data-cfemail=&quot;2c64454b446c601f021d&quot;&gt;[email&amp;#160;protected]&lt;/a&gt;&lt;script cf-hash='f9e31' type=&quot;text/javascript&quot;&gt;\n/* &lt;![CDATA[ */!function(){try{var t=&quot;currentScript&quot;in document?document.currentScript:function(){for(var t=document.getElementsByTagName(&quot;script&quot;),e=t.length;e--;)if(t[e].getAttribute(&quot;cf-hash&quot;))return t[e]}();if(t&amp;&amp;t.previousSibling){var e,r,n,i,c=t.previousSibling,a=c.getAttribute(&quot;data-cfemail&quot;);if(a){for(e=&quot;&quot;,r=parseInt(a.substr(0,2),16),n=2;a.length-n;n+=2)i=parseInt(a.substr(n,2),16)^r,e+=String.fromCharCode(i);e=document.createTextNode(e),c.parentNode.replaceChild(e,c)}}}catch(u){}}();/* ]]&gt; */&lt;/script&gt;\nFormat settings, CABAC                   : Yes\nFormat settings, ReFrames                : 8 frames\nCodec ID                                 : V_MPEG4/ISO/AVC\nDuration                                 : 3mn 21s\nBit rate                                 : 2 950 Kbps\nWidth                                    : 720 pixels\nHeight                                   : 576 pixels\nDisplay aspect ratio                     : 4:3\nFrame rate mode                          : Constant\nFrame rate                               : 25.000 fps\nStandard                                 : PAL\nColor space                              : YUV\nChroma subsampling                       : 4:2:0\nBit depth                                : 8 bits\nScan type                                : Progressive\nBits/(Pixel*Frame)                       : 0.284\nStream size                              : 71.0 MiB (65%)\nWriting library                          : x264 core 135 r2345 f0c1c53\nEncoding settings                        : cabac=1 // deblock=1:0:0 / me=umh / subme=9 // me_range=16 / chroma_me=1 / trellis=2 / 8x8dct=1 / chroma_qp_offset=-2 / threads=9 / lookahead_threads=1 / / interlaced=0 / bframes=3 / b_pyramid=2 / rc_lookahead=60 / rc=crf / crf=18.0 / \nAudio\n                                      \nFormat                                   : DTS\nFormat/Info                              : Digital Theater Systems\nCodec ID                                 : A_DTS\nDuration                                 : 3mn 21s\nBit rate mode                            : Constant\nBit rate                                 : 1 510 Kbps\nChannel(s)                               : 6 channels\nChannel positions                        : Front: L C R, Side: L R, LFE\nSampling rate                            : 48.0 KHz\nBit depth                                : 24 bits\nCompression mode                         : Lossy\nDelay relative to video                  : -5ms\nStream size                              : 36.3 MiB (33%)\nLanguage                                 : English\n\n\n\n","torrent":{"xt":"urn:btih:9aacbedd8f2a0c1362ed3cae40a8f8cff1d7cc5b","amp;dn":"Boston+-+More+Than+a+Feeling+576p+x264+DTS+%28promo%29","amp;tr":["udp%3A%2F%2Ftracker.openbittorrent.com%3A80","udp%3A%2F%2Fopen.demonii.com%3A1337","udp%3A%2F%2Ftracker.coppersurfer.tk%3A6969","udp%3A%2F%2Fexodus.desync.com%3A6969"],"infoHash":"9aacbedd8f2a0c1362ed3cae40a8f8cff1d7cc5b","infoHashBuffer":{"type":"Buffer","data":[154,172,190,221,143,42,12,19,98,237,60,174,64,168,248,207,241,215,204,91]},"announce":[],"urlList":[]}}